<?xml version="1.0" encoding="utf-8"?>
<!-- Generator: Adobe Illustrator 22.0.0, SVG Export Plug-In . SVG Version: 6.00 Build 0)  -->
<svg version="1.1" xmlns="http://www.w3.org/2000/svg" xmlns:xlink="http://www.w3.org/1999/xlink" x="0px" y="0px"
	 viewBox="0 0 32 32" style="enable-background:new 0 0 32 32;" xml:space="preserve">
<g id="Layer_1">
</g>
<g id="Layer_2">
	<g>
		<path d="M17,1.5C16.8,1.2,16.4,1,16,1c-0.4,0-0.8,0.2-1,0.5c0,0,0,0,0,0c-1.7,1.4-2.1,4.3-1.9,6.6c0.2,1.8,0.8,3.9,2,4.8
			c0.2,0.3,0.5,0.4,0.8,0.4c0,0,0.1,0,0.1,0c0,0,0.1,0,0.1,0c0.3,0,0.6-0.2,0.8-0.4c1.2-0.9,1.9-2.9,2-4.8C19.1,5.8,18.7,2.9,17,1.5
			C17,1.5,17,1.5,17,1.5z M16.9,7.9c-0.1,1.5-0.5,2.5-0.9,3c-0.4-0.5-0.8-1.5-0.9-3C14.9,6,15.3,4.3,16,3.4
			C16.7,4.3,17.1,6,16.9,7.9z"/>
		<path d="M29.1,15C29.1,15,29.1,15,29.1,15c-1.4-1.7-4.3-2.1-6.6-1.9c-1.8,0.2-3.9,0.8-4.8,2c-0.3,0.2-0.4,0.5-0.4,0.9
			c0,0.3,0.1,0.7,0.4,0.9c0.9,1.3,3,1.9,4.8,2c0.3,0,0.7,0,1,0c2.1,0,4.4-0.5,5.5-2c0.3-0.2,0.5-0.6,0.5-1
			C29.7,15.6,29.5,15.2,29.1,15z M22.7,16.9c-1.5-0.1-2.5-0.5-3-0.9c0.5-0.4,1.5-0.8,3-0.9c1.9-0.2,3.6,0.2,4.5,0.9
			C26.4,16.7,24.7,17.1,22.7,16.9z"/>
		<path d="M14.1,17c0.3-0.2,0.5-0.6,0.5-1c0-0.4-0.2-0.8-0.5-1c0,0,0,0,0,0c-1.4-1.7-4.3-2.1-6.6-1.9c-1.8,0.2-3.9,0.8-4.8,2
			c-0.3,0.2-0.4,0.5-0.4,0.9c0,0.3,0.1,0.7,0.4,0.9c0.9,1.3,3,1.9,4.8,2c0.3,0,0.7,0,1,0C10.6,19,12.9,18.4,14.1,17z M7.7,16.9
			c-1.5-0.1-2.5-0.5-3-0.9c0.5-0.4,1.5-0.8,3-0.9c1.9-0.2,3.6,0.2,4.5,0.9C11.3,16.7,9.6,17.1,7.7,16.9z"/>
		<path d="M17,19.3C17,19.3,17,19.3,17,19.3c-0.2-0.4-0.6-0.6-1-0.5c-0.4,0-0.8,0.2-1,0.5c0,0,0,0,0,0c-1.7,1.4-2.1,4.3-1.9,6.6
			c0.2,1.8,0.8,3.9,2,4.8c0.2,0.3,0.5,0.4,0.8,0.4c0,0,0.1,0,0.1,0c0,0,0.1,0,0.1,0c0.3,0,0.6-0.2,0.8-0.4c1.2-0.9,1.9-2.9,2-4.8
			C19.1,23.6,18.7,20.7,17,19.3z M16.9,25.7c-0.1,1.5-0.5,2.5-0.9,3c-0.4-0.5-0.8-1.5-0.9-3c-0.2-1.9,0.2-3.6,0.9-4.5
			C16.7,22,17.1,23.7,16.9,25.7z"/>
	</g>
</g>
</svg>
