<?xml version="1.0" encoding="iso-8859-1"?>
<!-- Generator: Adobe Illustrator 19.0.0, SVG Export Plug-In . SVG Version: 6.00 Build 0)  -->
<svg version="1.1"  xmlns="http://www.w3.org/2000/svg" xmlns:xlink="http://www.w3.org/1999/xlink" x="0px" y="0px"
	 viewBox="0 0 400 400" style="padding: 5px" xml:space="preserve">
<path d="M195.667,199h-23.333V15.5C172.333,6.953,165.547,0,157,0c-8.384,0-15.134,6.695-15.392,15.017l-21.759-7.815
	c-7.971-2.781-16.994-1.913-24.296,2.339L77.492,20.085c-3.519,2.054-7.529,3.14-11.608,3.14c-3.643,0-7.278-0.879-10.521-2.541
	L35.834,10.682c-3.91-1.998-8.724-1.806-12.438,0.47c-3.79,2.302-6.063,6.492-6.063,10.935v72.308c0,4.827,2.592,9.197,6.895,11.405
	l28.397,14.563c4.096,2.101,8.675,3.211,13.28,3.211c5.158,0,10.228-1.374,14.68-3.972l18.064-10.541
	c3.527-2.055,7.546-3.141,11.627-3.141c2.595,0,4.986,0.434,7.409,1.278l23.647,8.587V199h-22.667c-7.72,0-14,6.28-14,14
	s6.28,14,14,14h77c7.72,0,14-6.28,14-14S203.386,199,195.667,199z"/>
<g>
</g>
<g>
</g>
<g>
</g>
<g>
</g>
<g>
</g>
<g>
</g>
<g>
</g>
<g>
</g>
<g>
</g>
<g>
</g>
<g>
</g>
<g>
</g>
<g>
</g>
<g>
</g>
<g>
</g>
</svg>
