<svg class="categore-svg" id="Layer_1" style="enable-background:new 0 0 24 24;" version="1.1" viewBox="0 0 24 24" x="0px" xml:space="preserve" xmlns="http://www.w3.org/2000/svg" xmlns:xlink="http://www.w3.org/1999/xlink" y="0px">
                                <style type="text/css">
                                    .st0 {
                                        fill: url(#SVGID_1_);
                                    }

                                    .st1 {
                                        <!-- fill: url(#SVGID_2_); -->
                                    }
                                </style>
                                <linearGradient gradientUnits="userSpaceOnUse" id="SVGID_1_" x1="2.8461" x2="22.1588" y1="11.7055" y2="11.7055">
                                    <stop offset="0" style="stop-color:#00C0FF"></stop>
                                    <stop offset="1" style="stop-color:#4218B8"></stop>
                                </linearGradient>
                                <path class="st0" d="M12.5,7.1l-6.9,5.7c0,0,0,0,0,0c0,0,0,0,0,0v5.7c0,0.2,0.1,0.4,0.2,0.5c0.2,0.2,0.3,0.2,0.5,0.2H11v-4.6H14v4.6  h4.6c0.2,0,0.4-0.1,0.5-0.2c0.2-0.2,0.2-0.3,0.2-0.5v-5.7c0,0,0-0.1,0-0.1L12.5,7.1z M22,11.5l-2.6-2.2V4.4c0-0.1,0-0.2-0.1-0.3  c-0.1-0.1-0.2-0.1-0.3-0.1h-2.3c-0.1,0-0.2,0-0.3,0.1c-0.1,0.1-0.1,0.2-0.1,0.3v2.3l-2.9-2.4C13.2,4.1,12.9,4,12.5,4  c-0.4,0-0.7,0.1-0.9,0.3L3,11.5c-0.1,0.1-0.1,0.1-0.1,0.3c0,0.1,0,0.2,0.1,0.3l0.7,0.9C3.7,13,3.8,13,3.9,13.1c0.1,0,0.2,0,0.3-0.1  l8.3-6.9l8.3,6.9c0.1,0.1,0.1,0.1,0.3,0.1h0c0.1,0,0.2-0.1,0.3-0.1l0.7-0.9c0.1-0.1,0.1-0.2,0.1-0.3C22.1,11.7,22.1,11.6,22,11.5z"></path>
                            </svg>