<?xml version="1.0" encoding="UTF-8" standalone="no"?> <svg xmlns="http://www.w3.org/2000/svg" xmlns:xlink="http://www.w3.org/1999/xlink" viewBox="0 0 64 64"><defs><style>.cls-1{fill:url(#linear-gradient);}.cls-2{fill:url(#linear-gradient-2);}</style><linearGradient id="linear-gradient" x1="23.22" y1="32" x2="40.78" y2="32" gradientUnits="userSpaceOnUse"><stop offset="0" stop-color="#17a6d7"/><stop offset="1" stop-color="#9d31fe"/></linearGradient><linearGradient id="linear-gradient-2" x1="5.75" x2="58.25" xlink:href="#linear-gradient"/></defs><g id="Layer_68" data-name="Layer 68"><path class="cls-1" d="M34.09,30.75H29.91a4.11,4.11,0,0,1-4.19-4,3.92,3.92,0,0,1,1.21-2.83,4.32,4.32,0,0,1,3-1.18h8a1.25,1.25,0,0,0,0-2.5H33.25V15.46a1.25,1.25,0,0,0-2.5,0v4.77h-.84a6.73,6.73,0,0,0-4.72,1.89,6.46,6.46,0,0,0-2,4.62,6.61,6.61,0,0,0,6.69,6.51h4.18a4.11,4.11,0,0,1,4.19,4,3.92,3.92,0,0,1-1.21,2.83,4.32,4.32,0,0,1-3,1.18h-8a1.25,1.25,0,1,0,0,2.5h4.61v4.77a1.25,1.25,0,0,0,2.5,0V43.77h.84a6.73,6.73,0,0,0,4.72-1.89,6.46,6.46,0,0,0,2-4.62A6.61,6.61,0,0,0,34.09,30.75Z"/><path class="cls-2" d="M32,5.75A26.25,26.25,0,1,0,58.25,32,26.29,26.29,0,0,0,32,5.75Zm0,50A23.75,23.75,0,1,1,55.75,32,23.77,23.77,0,0,1,32,55.75Z"/></g></svg>