<?xml version="1.0" encoding="iso-8859-1"?>
<!-- Generator: Adobe Illustrator 16.0.0, SVG Export Plug-In . SVG Version: 6.00 Build 0)  -->
<!DOCTYPE svg PUBLIC "-//W3C//DTD SVG 1.1//EN" "http://www.w3.org/Graphics/SVG/1.1/DTD/svg11.dtd">
<svg version="1.1" xmlns="http://www.w3.org/2000/svg" xmlns:xlink="http://www.w3.org/1999/xlink" x="0px" y="0px" width="520px"
	 height="520px" viewBox="0 0 520 520" style="enable-background:new 0 0 520 520;" xml:space="preserve">
<g id="_x38_15_x2C__Art_x2C__Gallery_x2C__Museum_x2C__Building">
	<g>
		<g>
			<path style="fill:#ECEBED;" d="M450,415c-8.16,0-16.514,0-25,0v-20h-10c0-22.883,0-135.665,0-150c20.541,0,36.363,0,45,0v-45h25
				L260,85L35,200h25v45c7.902,0,23.837,0,45,0c0,17.225,0,131.364,0,150H95v20c-8.488,0-16.841,0-25,0v30H45v30h430v-30h-25V415z
				 M375,340v25v30h-10v20c-9.902,0-19.906,0-30,0v-20h-10v-30v-25v-95c17.545,0,34.406,0,50,0V340z M235,395v-30v-25v-95
				c16.586,0,33.398,0,50,0v95v25v30h-10v20c-9.996,0-20.004,0-30,0v-20H235z M145,395v-30v-25v-95c15.563,0,32.425,0,50,0v95v25v30
				h-10v20c-10.095,0-20.099,0-30,0v-20H145z"/>
			<path style="fill:#7DA8FF;" d="M435,70c11.05,0,20,8.95,20,20s-8.95,20-20,20c-11.04,0-20-8.95-20-20S423.96,70,435,70z"/>
			<path style="fill:#7DA8FF;" d="M60,335c8.29,0,15,6.72,15,15s-6.71,15-15,15c-8.28,0-15-6.72-15-15S51.72,335,60,335z"/>
			<circle style="fill:#7DA8FF;" cx="105" cy="70" r="30"/>
			<polygon style="fill:#BCB7C6;" points="348.05,170 171.96,170 260,125 			"/>
			<polygon style="fill:#BCB7C6;" points="425,395 425,415 365,415 365,395 375,395 415,395 			"/>
			<rect x="375" y="340" style="fill:#BCB7C6;" width="40" height="25"/>
			<path style="fill:#BDF9FF;" d="M472.5,290c4.15,0,7.5,3.36,7.5,7.5s-3.35,7.5-7.5,7.5c-4.141,0-7.5-3.36-7.5-7.5
				S468.359,290,472.5,290z"/>
			<polygon style="fill:#BCB7C6;" points="475,445 475,475 45,475 45,445 70,445 450,445 			"/>
			<path style="fill:#BDF9FF;" d="M462.5,375c4.15,0,7.5,3.36,7.5,7.5s-3.35,7.5-7.5,7.5c-4.141,0-7.5-3.36-7.5-7.5
				S458.359,375,462.5,375z"/>
			<path style="fill:#BCB7C6;" d="M460,200v45c-51.242,0-355.112,0-400,0v-45H460z"/>
			<path style="fill:#BDF9FF;" d="M452.5,135c4.15,0,7.5,3.36,7.5,7.5s-3.35,7.5-7.5,7.5c-4.141,0-7.5-3.36-7.5-7.5
				S448.359,135,452.5,135z"/>
			<path style="fill:#BDF9FF;" d="M362.5,50c4.15,0,7.5,3.36,7.5,7.5s-3.35,7.5-7.5,7.5c-4.141,0-7.5-3.36-7.5-7.5
				S358.359,50,362.5,50z"/>
			<polygon style="fill:#BCB7C6;" points="335,395 335,415 275,415 275,395 285,395 325,395 			"/>
			<rect x="285" y="340" style="fill:#BCB7C6;" width="40" height="25"/>
			<polygon style="fill:#BCB7C6;" points="245,395 245,415 185,415 185,395 195,395 235,395 			"/>
			<rect x="195" y="340" style="fill:#BCB7C6;" width="40" height="25"/>
			<path style="fill:#BDF9FF;" d="M202.5,45c4.15,0,7.5,3.36,7.5,7.5s-3.35,7.5-7.5,7.5c-4.14,0-7.5-3.36-7.5-7.5
				S198.36,45,202.5,45z"/>
			<polygon style="fill:#BCB7C6;" points="155,395 155,415 95,415 95,395 105,395 145,395 			"/>
			<rect x="105" y="340" style="fill:#BCB7C6;" width="40" height="25"/>
			<path style="fill:#BDF9FF;" d="M67.5,125c4.15,0,7.5,3.36,7.5,7.5s-3.35,7.5-7.5,7.5c-4.14,0-7.5-3.36-7.5-7.5
				S63.36,125,67.5,125z"/>
			<path style="fill:#BDF9FF;" d="M57.5,390c4.15,0,7.5,3.36,7.5,7.5s-3.35,7.5-7.5,7.5c-4.14,0-7.5-3.36-7.5-7.5
				S53.36,390,57.5,390z"/>
			<path style="fill:#BDF9FF;" d="M47.5,272.5c4.15,0,7.5,3.36,7.5,7.5s-3.35,7.5-7.5,7.5c-4.14,0-7.5-3.36-7.5-7.5
				S43.36,272.5,47.5,272.5z"/>
			<path style="fill:#414440;" d="M485,480H35c-2.761,0-5-2.238-5-5s2.239-5,5-5h450c2.762,0,5,2.238,5,5S487.762,480,485,480z"/>
		</g>
	</g>
</g>
<g id="Layer_1">
</g>
</svg>
